<?xml version="1.0" encoding="UTF-8" standalone="no"?>
<!-- Generator: Adobe Illustrator 23.0.1, SVG Export Plug-In . SVG Version: 6.00 Build 0)  -->

<svg
   xmlns:dc="http://purl.org/dc/elements/1.1/"
   xmlns:cc="http://creativecommons.org/ns#"
   xmlns:rdf="http://www.w3.org/1999/02/22-rdf-syntax-ns#"
   xmlns:svg="http://www.w3.org/2000/svg"
   xmlns="http://www.w3.org/2000/svg"
   xmlns:sodipodi="http://sodipodi.sourceforge.net/DTD/sodipodi-0.dtd"
   xmlns:inkscape="http://www.inkscape.org/namespaces/inkscape"
   version="1.1"
   id="svg102"
   x="0px"
   y="0px"
   viewBox="0 0 110.13802 85.008357"
   xml:space="preserve"
   sodipodi:docname="5c1215be3185eaec3e73c136_cyphersquatt.svg"
   width="110.13802"
   height="85.008354"
   inkscape:version="0.92.2 2405546, 2018-03-11"><metadata
   id="metadata16"><rdf:RDF><cc:Work
       rdf:about=""><dc:format>image/svg+xml</dc:format><dc:type
         rdf:resource="http://purl.org/dc/dcmitype/StillImage" /><dc:title></dc:title></cc:Work></rdf:RDF></metadata><defs
   id="defs14" />
<style
   type="text/css"
   id="style2">
	.st0{fill:#FFFFFF;}
</style>
<sodipodi:namedview
   bordercolor="#666666"
   borderopacity="1.0"
   fit-margin-bottom="0"
   fit-margin-left="0"
   fit-margin-right="0"
   fit-margin-top="0"
   id="base"
   inkscape:current-layer="layer1"
   inkscape:cx="-204.98034"
   inkscape:cy="-49.446674"
   inkscape:document-units="mm"
   inkscape:pageopacity="0.0"
   inkscape:pageshadow="2"
   inkscape:window-height="1028"
   inkscape:window-maximized="1"
   inkscape:window-width="1920"
   inkscape:window-x="0"
   inkscape:window-y="0"
   inkscape:zoom="0.63710937"
   pagecolor="#ffffff"
   scale-x="1.2"
   showgrid="false">
	</sodipodi:namedview>
<g
   id="layer1"
   transform="translate(-60.651239,-146.93189)"
   inkscape:groupmode="layer"
   inkscape:label="Calque 1">
	<g
   id="g126"
   transform="matrix(3.6718672,0,0,3.6718672,-108.11157,-350.72868)">
		<g
   id="g46"
   transform="matrix(0.35277777,0,0,-0.35277777,47.703825,140.43699)">
			<path
   id="path48"
   inkscape:connector-curvature="0"
   class="st0"
   d="m 6.7,-19 h 5.9 c 0.5,0 0.9,0.4 0.9,0.9 0.4,13.5 11.5,24.3 25.1,24.3 7.1,0 13.6,-3 18.2,-7.8 0.3,-0.4 0.9,-0.4 1.3,0 l 4.3,4 c 0.4,0.3 0.4,0.9 0.1,1.3 C 56.5,10 48,13.9 38.6,13.9 20.8,13.9 6.2,-0.3 5.7,-18 c 0,-0.5 0.5,-1 1,-1"
   style="fill:#ffffff" />
		</g>
		<g
   id="g50"
   transform="matrix(0.35277777,0,0,-0.35277777,57.160068,141.22214)">
			<path
   id="path52"
   inkscape:connector-curvature="0"
   class="st0"
   d="m 43.2,-22 -6,0.2 c -0.4,0 -0.8,-0.3 -0.9,-0.7 -2.6,-11.1 -12.6,-19.3 -24.5,-19.3 -6.9,0 -13.1,2.8 -17.6,7.2 -0.3,0.3 -0.9,0.4 -1.2,0.1 l -4.6,-3.7 c -0.4,-0.3 -0.5,-1 -0.1,-1.4 6,-6.1 14.3,-9.9 23.5,-9.9 16,0 29.3,11.4 32.3,26.5 0.1,0.5 -0.3,1 -0.9,1"
   style="fill:#ffffff" />
		</g>
		<g
   id="g54"
   transform="matrix(0.35277777,0,0,-0.35277777,58.590477,137.50933)">
			<path
   id="path56"
   inkscape:connector-curvature="0"
   class="st0"
   d="m 48.7,-7.7 -5.5,2.3 c -0.3,0.1 -0.7,0.1 -1,-0.2 l -5.7,-5.7 -5.8,-5.8 -16.5,-16.5 c -0.6,-0.6 -1.6,-0.2 -1.6,0.7 v 21.7 c 0,0.4 -0.2,0.7 -0.6,0.9 L 6.6,-8.1 C 6.3,-8 5.9,-8 5.6,-8.3 l -22.7,-22.7 -6.4,-6.4 -12,-12 c -0.4,-0.4 -0.4,-0.9 0,-1.3 l 4.2,-4.2 c 0.4,-0.4 1,-0.4 1.3,0 l 10,10 5.6,5.6 19.3,19.4 v -21 c 0,-2.2 1.3,-4.1 3.3,-4.9 2,-0.8 4.3,-0.4 5.8,1.2 l 18.8,18.8 6.8,6.8 1.9,1.9 v -7.4 c 0,-0.5 0.4,-0.9 0.9,-0.9 h 5.9 c 0.5,0 0.9,0.4 0.9,0.9 v 16.1 c 0.1,0.3 -0.1,0.6 -0.5,0.7"
   style="fill:#ffffff" />
		</g>
	</g>
</g>
</svg>